<svg xmlns="http://www.w3.org/2000/svg" viewBox="0 0 173.26 165.92"><g id="Layer_2" data-name="Layer 2"><g id="Layer_1-2" data-name="Layer 1"><path d="M105,142.65c7-1.11,7-5.36,7-7,0,0-5.3,2.34-15.69,2.34,0,0,1.66,5.79,8.68,4.67"/><path d="M72.09,113.51l.22-.05a18.84,18.84,0,0,0-4.87,1.43A.83.83,0,0,1,67,115a1,1,0,0,1-.28,0,.88.88,0,0,1-.51-.47c0-.1-.21-.46-.41-1a24.67,24.67,0,0,0-2.21,1.36,22.73,22.73,0,0,0-6.1,6.15,48.09,48.09,0,0,1,7-4.55,36.38,36.38,0,0,1,7.55-3"/><path d="M76.61,110.47c0,.19-.1.35-.14.53,1.28-.18,2.38-.3,3-.36a.61.61,0,0,1,0-.11,23.6,23.6,0,0,0-2.91-.06"/><path d="M80.23,112.36l-1.41.15c.43,0,.85,0,1.27-.05a46.28,46.28,0,0,1,8.27.83,21.29,21.29,0,0,0-7.09-2.51c-.15.49-.25.87-.3,1a.84.84,0,0,1-.74.61"/><path d="M106.45,108.68a8.23,8.23,0,0,1,4.47.31c.36.14.68.33,1,.48l.94.61.87.75a4.79,4.79,0,0,1,.71.8,5.17,5.17,0,0,1,.91,1.91,3.79,3.79,0,0,1,.13,1,4,4,0,0,1-.15,1,8.15,8.15,0,0,1-2.45,3.77c-.3.28-.63.52-.93.78s-.67.49-1,.71A17.56,17.56,0,0,1,108.8,122a21.83,21.83,0,0,1-4.76,1.75,15,15,0,0,0,5.18-.66,15.41,15.41,0,0,0,4.81-2.37,9,9,0,0,0,3.43-4.59,5.68,5.68,0,0,0,.3-1.57,7,7,0,0,0-.15-1.59,8.14,8.14,0,0,0-.53-1.53s-.09.07-.11.11c-.19.17-.4.36-.52.49l-.72-.79a.75.75,0,0,1-.27.08.86.86,0,0,1-.51-.16l-2.86-2a1.16,1.16,0,0,1-.3-.36c-.07-.16-.41-1-.88-2.12a9.3,9.3,0,0,0-4.89.19,12.68,12.68,0,0,0-4.7,2.71,14.42,14.42,0,0,0-3.2,4.22,19,19,0,0,1,3.88-3.28,12.93,12.93,0,0,1,4.45-1.85"/><path d="M121.9,106.49a20.91,20.91,0,0,1,3-.55,17.38,17.38,0,0,0-3,.38l0,.17"/><path d="M116.66,110.78c.14.23.3.46.42.7a6.08,6.08,0,0,1,.47-.39c.41-.33.81-.64,1.25-.93a17,17,0,0,1,2.76-1.47,14.31,14.31,0,0,1,3.87-1,18.25,18.25,0,0,0-7.39,2.22Z"/><path d="M126.16,107.61a11.75,11.75,0,0,1,1.57,0,15.26,15.26,0,0,1,6.18,1.73,23.49,23.49,0,0,1,5.45,3.84,24.8,24.8,0,0,0-5.08-4.5,16.74,16.74,0,0,0-6.4-2.56c-.25,0-.51-.05-.77-.08-.13.52-.25.9-.28,1a.88.88,0,0,1-.67.58"/><path d="M115.91,111.25c-.06,0-.13,0-.18,0l.72.78c.12-.13.33-.33.51-.49l.12-.1a5.47,5.47,0,0,0-.41-.71Z"/><path d="M72.31,113.46c2.4-.46,5-.79,6.51-.95-.93,0-1.85.09-2.77.22a33.39,33.39,0,0,0-3.74.73"/><path d="M60.81,81.94a11.41,11.41,0,0,1,1.64-2.06c.17-.37.32-.75.51-1.08,1.63-2.73,4.27-4.16,8.1-4.35a8.63,8.63,0,0,1,.87,0c3.54,0,6.16,1.18,8,3.62,6.28,8.39.74,28.64-.39,32.49.23,0,.46,0,.68.06s.72.12,1.07.19C82.64,106.16,88,86,81.3,77a11.14,11.14,0,0,0-.84-1,9.65,9.65,0,0,1-.78.79l-1-1.48a6.94,6.94,0,0,0,.59-.37A12.13,12.13,0,0,0,71,72.66c-4.38.23-7.57,2-9.49,5.22-5.92,10,2.39,31,4.35,35.65.26-.15.51-.27.77-.41-1.75-4.15-8.34-20.77-5.78-31.18"/><path d="M66.74,115a1,1,0,0,0,.28,0,1,1,0,0,0,.42-.09,18.84,18.84,0,0,1,4.87-1.43,31.94,31.94,0,0,1,3.73-.74c.93-.12,1.86-.19,2.78-.23l1.4-.14a.87.87,0,0,0,.77-.61c0-.09.13-.48.28-1-.35,0-.7-.14-1.07-.18l-.68,0a.24.24,0,0,1,0,.09c-.63.07-1.73.19-3,.36l-.13.49s-6.59.54-9.32,2.63c0,0-.15-.36-.43-1-.26.13-.51.25-.77.4.2.48.36.85.41.94a.83.83,0,0,0,.51.48"/><path d="M67.38,112.71a23.71,23.71,0,0,1,8.45-2.23h.77c1.38-5.72,1.79-15.94,1.79-15.94L71.58,92l5.61-5.4c-1.46-4.31-4.58-8.35-9.08-8.94a6.86,6.86,0,0,0-5.66,2.25c-4.24,9.47,3.06,28.31,4.93,32.83"/><path d="M75.83,110.48a24.64,24.64,0,0,0-4.33.73,24.1,24.1,0,0,0-4.11,1.51.84.84,0,0,0,.08.2,44.11,44.11,0,0,1,9-1.93c0-.17.1-.34.14-.52h-.78"/><path d="M62.46,79.88a11.52,11.52,0,0,0-1.65,2.05c-2.56,10.43,4,27,5.79,31.19.26-.12.51-.27.79-.41-1.88-4.52-9.18-23.37-4.93-32.83"/><path d="M67.38,112.71c-.27.13-.53.28-.79.41.26.63.43,1,.43,1,2.73-2.08,9.33-2.62,9.33-2.62,0-.15.08-.33.12-.48a44.12,44.12,0,0,0-9,1.92c0-.06-.06-.15-.09-.21"/><path d="M112,107c-2-4.76-8.08-20.63-5.6-30.73A11,11,0,0,1,108,74.2a11.62,11.62,0,0,1,.49-1.07c1.62-2.73,4.28-4.15,8.09-4.35s6.81,1,8.8,3.59c6.52,8.58,1,29.7-.09,33.54l-.43,0a18.4,18.4,0,0,1,2.22.09c1.32-4.71,6.55-25.31-.21-34.57a7.31,7.31,0,0,1-.73.75l-1-1.49a6.48,6.48,0,0,0,.72-.45c-2.28-2.38-5.43-3.48-9.39-3.28-4.39.23-7.59,2-9.51,5.22-5.51,9.3,1.32,28.17,3.88,34.48a4.74,4.74,0,0,1,.72.18,1.81,1.81,0,0,1,.35.13"/><path d="M126,107.66c.06,0,.11,0,.17,0-.25,0-.48,0-.72.08.32,0,.54,0,.55,0"/><path d="M112.09,109.17l2.86,2a.86.86,0,0,0,.5.17.61.61,0,0,0,.28-.09l-1.27-1.37.1-.08-2-1.41s-.24-.54-.61-1.43c-.12,0-.23-.1-.34-.13s-.49-.12-.73-.18c.47,1.17.81,2,.88,2.13a1.24,1.24,0,0,0,.3.35"/><path d="M124.9,106a17.05,17.05,0,0,0-3,.54q-.14.56-.27,1a11,11,0,0,0-5,2.06l-.56.35c.08.11.18.19.26.29s.22.38.33.57l1.37-.86a18.56,18.56,0,0,1,7.4-2.23c.24,0,.49-.07.73-.08a.87.87,0,0,0,.67-.57l.29-1a14.94,14.94,0,0,0-2.22-.09"/><path d="M116.66,110.78a5.88,5.88,0,0,0-.32-.56c-.09-.11-.18-.19-.26-.29l-.74.48-.79-.57a.34.34,0,0,1-.09.08l1.26,1.37a.35.35,0,0,0,.18-.05Z"/><path d="M113.15,107.52c.36.21.71.44,1.06.66s.74.6,1.12.91a.73.73,0,0,0,.08.09l.57-.38c.51-.32,1-.62,1.57-.9a18.71,18.71,0,0,1,3.32-1.33c.34-.1.71-.16,1.07-.25,1.38-5.95,2-17.45,2-17.45l-6.79-2.55,5.59-5.42c-1.44-4.3-4.56-8.35-9.08-8.92A6.74,6.74,0,0,0,108,74.2c-4.45,9.86,3.67,29.93,5.11,33.32"/><path d="M115.32,109.09c-.36-.31-.73-.63-1.1-.91s-.71-.45-1.08-.66c.06.11.11.26.15.33l2,1.43s.1,0,.14-.1a.43.43,0,0,1-.1-.09"/><path d="M120.87,106.58a17,17,0,0,0-3.33,1.33,15.32,15.32,0,0,0-1.56.9c-.19.12-.38.24-.56.38,0,0,.09.12.15.18l1.59-1a19.55,19.55,0,0,1,4.74-1.88l0-.16a9.26,9.26,0,0,0-1.07.25"/><path d="M115.29,109.28l.2.13.08,0-.16-.18-.12.09"/><path d="M113.15,107.52c-1.44-3.39-9.56-23.46-5.11-33.32a11.79,11.79,0,0,0-1.67,2.07c-2.48,10.1,3.62,26,5.61,30.74l1,.4a1,1,0,0,0,.18.11"/><path d="M115.29,109.28l-2-1.43c0-.07-.1-.22-.14-.33l-.18-.1c-.32-.15-.66-.28-1-.42.37.89.61,1.43.61,1.43l2,1.42c.25-.21.45-.37.67-.53l.07,0"/><path d="M115.57,109.36c.18.18.34.37.5.56l.56-.36a10.82,10.82,0,0,1,5-2c.1-.31.18-.65.27-1a20.13,20.13,0,0,0-4.74,1.88Z"/><path d="M116.07,109.93a6.66,6.66,0,0,0-.5-.56l-.08,0-.21-.15s0,0,0,0c-.23.17-.44.33-.68.53l.8.56Z"/><path d="M80.46,76a8.63,8.63,0,0,0,.6-.73,9.61,9.61,0,0,0,1-1.7,7.7,7.7,0,0,0,.65-1.87,7.08,7.08,0,0,0,.17-1.93,7.26,7.26,0,0,1-1.56,3.31,9.92,9.92,0,0,1-1.25,1.26,6.61,6.61,0,0,1-.82.6A12.89,12.89,0,0,1,80.46,76"/><path d="M79.67,76.77c.3-.26.55-.54.79-.79a10.56,10.56,0,0,0-1.15-1.07,5.16,5.16,0,0,1-.6.37Z"/><path d="M126.92,71.47a9.6,9.6,0,0,0,.64-.79A10.75,10.75,0,0,0,128.61,69a7.21,7.21,0,0,0,.65-1.86,7.08,7.08,0,0,0,.17-1.94,7.33,7.33,0,0,1-1.56,3.33,9.23,9.23,0,0,1-1.25,1.25c-.22.19-.45.35-.68.52a10.62,10.62,0,0,1,.86,1,1.22,1.22,0,0,1,.12.19"/><path d="M126.17,72.21a7.58,7.58,0,0,0,.75-.75l-.12-.19a11.88,11.88,0,0,0-.86-1c-.26.17-.5.33-.73.45Z"/><path d="M63.63,122.35a1,1,0,1,0,.94,1,.95.95,0,0,0-.94-1"/><path d="M69.89,116.93a1,1,0,1,0,.94.95.95.95,0,0,0-.94-.95"/><path d="M73.87,124.26a1,1,0,1,0,.93.95.94.94,0,0,0-.93-.95"/><path d="M136.87,115.3a.94.94,0,0,0-.94,1,.94.94,0,1,0,1.88,0,1,1,0,0,0-.94-1"/><path d="M125.69,117.88a.94.94,0,1,0,1.87,0,.94.94,0,1,0-1.87,0"/><path d="M77.88,118.17a1,1,0,1,0-.94-1,.95.95,0,0,0,.94,1"/><path d="M122.08,111.47a.94.94,0,1,0,.94-1,.94.94,0,0,0-.94,1"/><path d="M83,120.54a.94.94,0,0,0-.94-1,1,1,0,0,0,0,1.9.94.94,0,0,0,.94-.95"/><path d="M131.47,112.22a.94.94,0,0,0-.94,1,.94.94,0,1,0,1.88,0,1,1,0,0,0-.94-1"/><path d="M78.61,132.56c0,.11-.08.25-.14.36,4.06,7.39,9.27,16.79,28.07,14,16.19-2.38,19.82-14.82,20.63-19.73l-.26-.29c-.23-.23-.5-.46-.76-.69-2.44,1.81-8.63,5.67-20,8.28-12.42,2.83-23.41-1.07-27.17-2.66q-.18.34-.33.69M112,135.64c0,1.65,0,5.9-7,7S96.3,138,96.3,138c10.39,0,15.69-2.34,15.69-2.34"/><path d="M78.93,131.87a7.51,7.51,0,0,1,.47-.82,9.53,9.53,0,0,1,.53-.85c.19-.31.43-.58.64-1a3.43,3.43,0,0,0-2.4.44,4,4,0,0,0-1.69,2,4.71,4.71,0,0,0-.33,2.53,3.81,3.81,0,0,0,1.13,2.19c.29-.81.49-1.48.7-2.11.16-.48.33-.9.5-1.31-.32-.57-.62-1.14-.94-1.67,0,0,.49.24,1.39.63"/><path d="M78.93,131.87c-.9-.39-1.39-.63-1.39-.63.32.53.62,1.1.94,1.67,0-.1.08-.24.13-.35s.21-.46.32-.69"/><path d="M127.17,127.23a7.82,7.82,0,0,1,.83,1,8.31,8.31,0,0,1,.57.82c.22.28.38.62.67,1a3.46,3.46,0,0,0,.48-2.43,4,4,0,0,0-1.16-2.33,4.42,4.42,0,0,0-2.19-1.23,3.58,3.58,0,0,0-2.4.27c.63.58,1.17,1,1.65,1.43.2.17.35.33.54.49a10.69,10.69,0,0,0,1.24-1,18.54,18.54,0,0,1-.23,2"/><path d="M127.17,127.23a18.54,18.54,0,0,0,.23-2,10.69,10.69,0,0,1-1.24,1c.25.25.53.48.75.71s.18.19.26.29"/><path d="M172.87,136.17l-7.49-2.65c3.06-10.22-3.57-16-5.35-17.26,3.85-9.75-2.9-16.94-4.66-18.59A52,52,0,0,0,162,75.17c1-12.84-2-32.72-21.83-54.5C127.81,7,114.66.07,101.14,0H101C83.67,0,71.26,11.55,69.07,13.73a28.11,28.11,0,0,0-19.72-3.37c-12.08,2.15-23.68,11.22-34.49,27C0,58.88,0,79,2.48,92.07a68.22,68.22,0,0,0,8.92,23.11c-4.86,7-.5,16.06.68,18.24A11.08,11.08,0,0,0,7.45,141a12.66,12.66,0,0,0,2.48,8.4L.37,153.09a.61.61,0,0,0-.37.52.65.65,0,0,0,.3.57L19.42,165a.52.52,0,0,0,.27.07.54.54,0,0,0,.32-.09.61.61,0,0,0,.27-.53l-.6-10.35c3.51-.71,6-2.29,7.49-4.7A12.11,12.11,0,0,0,28.34,141c3.23.1,5.12-.72,6.2-1.51a29.89,29.89,0,0,0,6.17,7.14A82.23,82.23,0,0,0,63,160.28a48.5,48.5,0,0,0,12,3.84c1,.22,2,.44,3,.62a68.58,68.58,0,0,0,12.57,1.18,64.79,64.79,0,0,0,23.24-4.29,75.27,75.27,0,0,0,32.75-24.1c-.38-.29-.77-.53-1.17-.87a.59.59,0,0,1-.1-.82c.83-1.12,1.62-2.23,2.34-3.35-.72,1.12-1.51,2.23-2.34,3.35a.59.59,0,0,0,.1.82c.4.34.79.58,1.17.87,5.58,4.1,9.49,3.51,11.1,2.93l.62,8.07a.65.65,0,0,0,.36.51.58.58,0,0,0,.6-.1L173,137.19a.6.6,0,0,0,.21-.57.57.57,0,0,0-.38-.45M32.78,126.72a15.6,15.6,0,0,1,.59-3.18,15.6,15.6,0,0,0-.59,3.18,19.17,19.17,0,0,0,2.52,11.2,19.17,19.17,0,0,1-2.52-11.2M159.62,58.2A60,60,0,0,1,161,70c0,1.77,0,3.46-.14,5a55,55,0,0,1-2.57,13.07A55,55,0,0,0,160.88,75c.11-1.57.17-3.26.14-5a60,60,0,0,0-1.4-11.78,66.4,66.4,0,0,0-3.12-10.1,66.4,66.4,0,0,1,3.12,10.1m4.94,66.69a12.61,12.61,0,0,0-1-2.61,12.61,12.61,0,0,1,1,2.61m-5.79-8.65a1.48,1.48,0,0,0,0,.21,1.48,1.48,0,0,1,0-.21c4.47-10.5-4.15-17.7-4.52-18a.65.65,0,0,1-.22-.37.65.65,0,0,0,.22.37c.37.3,9,7.5,4.52,18m-4-5.14a18.71,18.71,0,0,0-.85-2.71,18.71,18.71,0,0,1,.85,2.71c.75,3.21.34,7.2-1.09,11.52a42.47,42.47,0,0,1-2.9,6.66,42.47,42.47,0,0,0,2.9-6.66c1.43-4.32,1.84-8.31,1.09-11.52M31.27,128.17a19,19,0,0,1,.43-4c.9-3.95,3-7.27,5.44-8.68-2.41,1.41-4.54,4.73-5.44,8.68a19,19,0,0,0-.43,4m-3.84,15.15a12.46,12.46,0,0,0-.22-2,12.46,12.46,0,0,1,.22,2M52.46,80A54.31,54.31,0,0,0,61,71.15,54.31,54.31,0,0,1,52.46,80a47.88,47.88,0,0,1-9.71,6.18A47.88,47.88,0,0,0,52.46,80M43.27,13.36A34.25,34.25,0,0,1,47.41,12a34.25,34.25,0,0,0-4.14,1.35M74.45,44.75a1.61,1.61,0,0,1,.33.15,1.61,1.61,0,0,0-.33-.15m49.82,17a73.15,73.15,0,0,1-17.19-1.54,82.17,82.17,0,0,1-14.3-4.34,82.17,82.17,0,0,0,14.3,4.34,73.15,73.15,0,0,0,17.19,1.54m19.06,38.51c-.63,0-1.21,0-1.73.08.52,0,1.1-.08,1.73-.08a13.75,13.75,0,0,1,4.24.7,13.75,13.75,0,0,0-4.24-.7m-6.55-40.93h0a1.38,1.38,0,0,1,1.33.54,1.38,1.38,0,0,0-1.33-.54m.59.94a.53.53,0,0,0-.41-.06.53.53,0,0,1,.41.06m-15.24.61a77.16,77.16,0,0,1-26.76-5,77.16,77.16,0,0,0,26.76,5m-49.34-15a1.46,1.46,0,0,1,.34-.65,1.46,1.46,0,0,0-.34.65Q72,49.14,71,52.12q1-3,1.84-6.27m-9,21.38a65.68,65.68,0,0,0,5-9.49,65.68,65.68,0,0,1-5,9.49M37.14,110c.22,2,.5,3.53.73,4.63-.23-1.1-.51-2.67-.73-4.63m37.05-63.8a82.93,82.93,0,0,0,32.54,14.6A83.12,83.12,0,0,1,74.19,46.22Zm50,16.16a73.33,73.33,0,0,1-11.92-.62,73.33,73.33,0,0,0,11.92.62m15.68,39.8a13.28,13.28,0,0,1,3.8-.39,13.28,13.28,0,0,0-3.8.39m15.62,17.33a40,40,0,0,1-3.85,10.11,40,40,0,0,0,3.85-10.11m-2,20a7.51,7.51,0,0,0,1.49.15,7.51,7.51,0,0,1-1.49-.15,12.64,12.64,0,0,1-3.87-1.43,12.64,12.64,0,0,0,3.87,1.43m2.23-28.66a16.63,16.63,0,0,0-2.21-5.33,16.68,16.68,0,0,1,2.58,8,16.63,16.63,0,0,0-.37-2.64m-35-104.53a70.08,70.08,0,0,1,18.72,15.14A70.08,70.08,0,0,0,120.63,6.35M56.31,11.13a28.47,28.47,0,0,0-7,.46,28.47,28.47,0,0,1,7-.46M36.47,16.85a43.1,43.1,0,0,1,4.6-2.55,43.1,43.1,0,0,0-4.6,2.55,56.91,56.91,0,0,0-10,8.1A93.16,93.16,0,0,0,15.81,38a80.15,80.15,0,0,0-8.4,15.56A72.74,72.74,0,0,0,4.89,61a72.74,72.74,0,0,1,2.52-7.4A80.15,80.15,0,0,1,15.81,38,93.16,93.16,0,0,1,26.49,25a56.91,56.91,0,0,1,10-8.1m-18,136.73A.6.6,0,0,1,19,153a.6.6,0,0,0-.49.62M2.55,74.72A65.1,65.1,0,0,1,4,64.54,65.1,65.1,0,0,0,2.55,74.72M3.61,91.8a71.9,71.9,0,0,0,4,13.39,71.9,71.9,0,0,1-4-13.39c-.31-1.61-.57-3.32-.78-5.14.21,1.82.47,3.53.78,5.14m9.76,41.68a.56.56,0,0,1-.19.58.57.57,0,0,0,.19-.58m-1.83-20.3c-.63-1.09-1.5-2.66-2.46-4.66,1,2,1.83,3.57,2.46,4.66m-.47,37L2,153.75l17.09,9.64L2,153.75Zm15.1-1.46a9.06,9.06,0,0,0,1.24-4.15,9.06,9.06,0,0,1-1.24,4.15A8.07,8.07,0,0,1,25,150.25a8.07,8.07,0,0,0,1.21-1.53m7.29-27.18a13.91,13.91,0,0,1,1-1.93,13.91,13.91,0,0,0-1,1.93,17.21,17.21,0,0,0-1.32,6.24,17.21,17.21,0,0,1,1.32-6.24M39,116.91a.53.53,0,0,0,.36-.29.6.6,0,0,0,.06-.47,4.1,4.1,0,0,1-.15-.53,4.1,4.1,0,0,0,.15.53.6.6,0,0,1-.06.47.53.53,0,0,1-.36.29,6.83,6.83,0,0,0-3.54,3.24A6.83,6.83,0,0,1,39,116.91m-1-10.09a60.75,60.75,0,0,1,.13-8.95c.14-1.67.36-3.44.67-5.29.15-.92.33-1.86.53-2.82.19-.06.44-.13.75-.24-.31.11-.56.18-.75.24-.2,1-.38,1.9-.53,2.82-.31,1.85-.53,3.62-.67,5.29a60.75,60.75,0,0,0-.13,8.95M74.55,47.23A84.51,84.51,0,0,0,97.1,58.75a81.16,81.16,0,0,0,11.68,3,81.16,81.16,0,0,1-11.68-3A84.51,84.51,0,0,1,74.55,47.23ZM131.12,62.4a71.18,71.18,0,0,1-9,.58,71.18,71.18,0,0,0,9-.58m5.58-.9c.19.57.52,1.62.9,3.1-.38-1.48-.71-2.53-.9-3.1m2.16,8.73c-.28-1.5-.58-2.85-.85-4,.28,1.17.57,2.52.85,4m.41,31.84a.63.63,0,0,0,.19.54.63.63,0,0,1-.19-.54c.44-2.58.74-5.1.93-7.53-.19,2.43-.49,4.95-.93,7.53m1.57.5a3.89,3.89,0,0,0-.83.18,3.89,3.89,0,0,1,.83-.18m12.85,8.8a12.51,12.51,0,0,0-3.24-6.25,12.51,12.51,0,0,1,3.24,6.25m4.7,27.66h0a.52.52,0,0,0-.57,0,.52.52,0,0,1,.57,0m6.06-4.57a.5.5,0,0,1-.32-.3.56.56,0,0,1,0-.46,17.89,17.89,0,0,0,.83-3.92,17.89,17.89,0,0,1-.83,3.92.56.56,0,0,0,0,.46.5.5,0,0,0,.32.3l7.06,2.48Zm-130.5,4h0a3.6,3.6,0,0,0,.65-.61,3.6,3.6,0,0,1-.65.61c.1.16.19.34.29.51-.1-.17-.19-.35-.29-.51m78.79,20.36a63,63,0,0,1-35.08,2.82c-1-.19-1.87-.41-2.81-.63a77.43,77.43,0,0,1-12.37-4.18,79.62,79.62,0,0,1-19.9-12.49c-9.42-8.11-8.77-16.38-8-19.56,1-4.27,3.32-6.68,4.69-7a1.45,1.45,0,0,0,.92-.72,1.54,1.54,0,0,0,.12-1.17c0-.11-3.19-10.59-.15-25.43A44.89,44.89,0,0,0,54,82.62c6.92-5.58,16.06-16,21-33.92a83.35,83.35,0,0,0,16.7,9c10.24,4.18,26.14,8.34,44.35,4.77a90,90,0,0,1,2.31,39.38,1.57,1.57,0,0,0,.45,1.37,1.43,1.43,0,0,0,1.37.32c.05,0,4.48-1.2,8.11,1,2.21,1.33,3.72,3.68,4.5,7,2.75,11.67-11.84,36.48-40.1,47.27"/></g></g></svg>